<svg width="72" height="72" viewBox="0 0 72 72" fill="none" xmlns="http://www.w3.org/2000/svg">
<path d="M16.5134 19.3318C16.5134 17.7763 17.8157 16.5137 19.421 16.5137H52.9472C54.5531 16.5137 55.8547 17.7763 55.8547 19.3318V53.0373C55.8547 54.5933 54.5531 55.855 52.9472 55.855H19.421C17.8158 55.855 16.5134 54.5934 16.5134 53.0378V19.3313V19.3318Z" fill="#006699"/>
<path d="M28.4685 49.4371V31.7255H22.5814V49.4371H28.4691H28.4685ZM25.5262 29.3077C27.5787 29.3077 28.8565 27.9476 28.8565 26.248C28.8181 24.5096 27.5787 23.1875 25.5652 23.1875C23.5504 23.1875 22.2344 24.5096 22.2344 26.2478C22.2344 27.9475 23.5118 29.3075 25.4876 29.3075H25.5257L25.5262 29.3077ZM31.7271 49.4371H37.6137V39.5472C37.6137 39.0185 37.6521 38.4885 37.8076 38.1109C38.233 37.0528 39.2016 35.9576 40.8283 35.9576C42.9579 35.9576 43.8104 37.5817 43.8104 39.9629V49.4371H49.6968V39.2818C49.6968 33.8418 46.7929 31.3102 42.9198 31.3102C39.7444 31.3102 38.3498 33.0851 37.5749 34.2939H37.6141V31.7261H31.7274C31.8042 33.3877 31.7269 49.4377 31.7269 49.4377L31.7271 49.4371Z" fill="white"/>
</svg>
